<svg xmlns="http://www.w3.org/2000/svg" width="64" height="64"><path fill-rule="evenodd" clip-rule="evenodd" fill="#FFF" d="M63.803 25.954l-.537-1.104-.908-.686c-1.188-.925-7.188.112-8.807-1.349-1.145-1.053-1.318-2.85-1.668-5.406-.643-4.967-1.055-5.028-1.832-6.706C47.221 4.727 39.557 0 34.289 0H20.018C8.791 0 0 8.378 0 19.557v23.715C0 54.43 8.791 64 20.018 64h23.447c11.227 0 20.338-9.352 20.402-20.509L64 26.852l-.197-.898zM20.275 16.41H31.59c2.16 0 3.908 1.963 3.908 4.093 0 2.128-1.748 4.112-3.908 4.112H20.275c-2.158 0-3.908-1.984-3.908-4.112 0-2.13 1.75-4.093 3.908-4.093zm22.996 31.18H20.275c-2.158 0-3.908-1.995-3.908-4.103 0-2.129 1.75-4.103 3.908-4.103h22.996c2.137 0 3.883 1.974 3.883 4.103 0 2.108-1.746 4.103-3.883 4.103z"/></svg>