<svg xmlns="http://www.w3.org/2000/svg" width="64" height="64"><g fill-rule="evenodd" clip-rule="evenodd" fill="#FFF"><path d="M28.535 53.871c-8.101.507-15.911-.314-22.614-5.395-6.51-4.934-7.767-12.797-3.195-20.017 1.652-2.608 3.812-4.89 5.886-7.503l-4.525-2.908c5.8-1.513 11.266-2.94 16.729-4.367-7.926 5.743-13.51 12.75-11.604 23.208 1.93 10.594 9.638 14.991 19.323 16.982zm14.351-3.568c8.658-5.844 14.26-13.327 11.701-24.179-2.312-9.799-9.81-14.042-19.633-15.646.792-.25 1.122-.439 1.459-.449 6.999-.212 13.781.654 19.899 4.407 7.067 4.335 9.586 11.481 6.191 18.767-1.4 3.009-3.836 5.531-5.828 8.257-.396.544-.908 1.005-1.493 1.637l4.738 2.99c-5.651 1.489-10.962 2.891-16.275 4.279-.176.046-.383-.027-.759-.063z"/><path d="M40.586 38.635c-3.767 4.279-8.521 5.993-14.096 5.073-5.304-.874-8.124-5.931-6.82-11.836 1.738-7.865 10.329-13.672 18.205-12.307 4.494.78 6.31 5.075 3.267 8.501-1.568 1.766-3.913 3.018-6.134 3.96-2.251.956-4.773 1.288-7.196 1.805-1.112.237-1.591.674-1.604 1.927-.05 4.76 3.244 7.271 7.894 5.655 1.638-.569 3.022-1.859 4.55-2.774.517-.31 1.117-.479 1.679-.711.084.236.169.47.255.707zm-13.992-5.85c4.57-.782 8.284-2.279 9.694-6.905.499-1.633.682-3.47-1.059-4.463-1.769-1.008-3.307-.085-4.536 1.304-2.463 2.783-3.449 6.181-4.099 10.064z"/></g></svg>