<svg xmlns="http://www.w3.org/2000/svg" width="64" height="64"><path fill-rule="evenodd" clip-rule="evenodd" fill="#FFF" d="M61 18.314c-.075-1.32-1.027-3.119-2.129-3.77L33.849.402c-.913-.502-2.562-.549-3.458-.057L5.037 14.703c-1.078.635-2.073 2.451-2.036 3.739v27.161c-.002 1.39 1.105 3.327 2.283 4.025l24.669 13.927c1.105.596 3.087.593 4.195-.002l24.34-13.703c1.282-.764 2.368-2.837 2.482-4.386l.03-27.15zM41.498 37.606c2.295-.135 3.842.095 3.842 3.14 0 2.901-1.005 3.75-3.785 3.685a389.282 389.282 0 00-19.087.005c-2.868.074-3.687-.959-3.701-3.762-.014-3.115 1.69-3.171 3.907-3.07.994.044 1.995-.115 2.992-.182-5.043-2.629-8.854-5.554-6.076-12.311 2.244 1.154 4.637 2.065 6.661 3.496 3.862 2.73 7.437 3.094 11.385.123 1.993-1.502 4.432-2.413 6.705-3.609 2.128 6.071 1.722 6.832-6.839 12.235 1.875.128 2.943.314 3.996.25z"/></svg>