<svg xmlns="http://www.w3.org/2000/svg" width="64" height="64"><path fill="#FFF" d="M53.02 35.52c-6.04-.959-8.798-1.385-11.026-2.666-2.078-1.194-11.533-9.445-11.584-15.569.033-.269.055-.537.074-.809.025-.156.021-.322.057-.475l-.031.037c.006-.227.031-.449.031-.678C30.54 6.878 23.705 0 15.269 0 6.838 0 0 6.878 0 15.361c0 8.48 6.838 15.359 15.269 15.359.654 0 1.295-.057 1.93-.137l-.124.137s10.92.854 16.542 14.293c0 0 .744 7.039 1.908 9.6 1.168 2.561 5.52 9.174 11.35 9.387l-5.941-9.861 5.941-10.51 12.298-.322 4.668 8.746c-.001 0 2.333-14.506-10.821-16.533zm-32.183-9.77H9.597L3.339 15.314 9.597 4.88h11.559l6.042 10.219-6.361 10.651z"/></svg>