<svg xmlns="http://www.w3.org/2000/svg" width="64" height="64"><path fill="#FFF" d="M23.698 42.3a3.18 3.18 0 00-.518.411 2.99 2.99 0 000 4.287c1.205 1.189 3.162 1.189 4.453.016l19.648-19.305c2.412-2.369 6.322-2.369 8.734 0a5.99 5.99 0 010 8.582L37.38 54.681c2.414 2.366 6.324 2.366 8.734 0l14.27-14.101a11.984 11.984 0 000-17.158c-4.824-4.736-12.643-4.736-17.469 0L23.698 42.3zm30.049-12.458a3.131 3.131 0 00-4.369 0 3.06 3.06 0 00-.416.512L29.819 49.157c-2.414 2.371-6.322 2.371-8.734 0l-.088-.014a3.128 3.128 0 00-4.365 0 2.995 2.995 0 000 4.291c.152.147.318.282.492.393 4.848 4.354 12.369 4.227 17.061-.379l19.562-19.314a3 3 0 000-4.292zM21.085 40.58l19.561-19.316a2.994 2.994 0 000-4.287 3.121 3.121 0 00-4.785.51L16.718 36.291c-2.412 2.369-6.322 2.369-8.732 0a5.994 5.994 0 010-8.582L26.618 9.32c-2.412-2.367-6.322-2.367-8.734 0L3.618 23.422a11.98 11.98 0 000 17.158c4.822 4.735 12.645 4.735 17.467 0zM10.081 29.842a2.996 2.996 0 000 4.292c1.205 1.184 3.162 1.184 4.453.01l19.65-19.3c2.287-2.248 5.928-2.365 8.354-.343l.289.329a3.135 3.135 0 004.369 0c1.188-1.168 1.242-3.09.086-4.275-4.822-4.74-12.641-4.74-17.463 0l-19.22 18.879c-.182.115-.356.25-.518.408z"/></svg>