<svg xmlns="http://www.w3.org/2000/svg" width="64" height="64"><path fill="#FFF" d="M54.402 19.328C47.271 10.609 41.52 9.84 37.881 7.761 35.277 6.272 32.875 3.652 29.82 0c-.205 1.974-.416 3.942-1.705 5.396-2.533 2.863-5.973 4.621-8.777 6.006C12.205 14.918 4 23.109 4 36.199c0 6.339 2.441 13.162 7.051 18.419 4.9 5.595 12.236 9.425 20.951 9.382 7.787-.039 14.182-2.586 18.986-6.743C56.611 52.395 60 45.253 60 36.199c0-6.67-1.986-12.447-5.598-16.871zm-7.884 38.86c-3.439 2.875-12.746 4.515-17.174.855-.436-.361-.451-.904-.164-1.219.215-.237.402-.346.66-.495.322-.185.736-.111 1.016.144 1.744 1.615 9.99 2.969 14.945-.367.182-.123.418-.206.619-.117.15.064.242.145.262.317.031.277.05.699-.164.882zm-11.59-4.355c.012-.414.127-.671.422-.962 1.695-1.693 3.5-2.695 5.525-2.646 3.234.081 3.373.843 4.314 2.737a.915.915 0 01-.045.913c-.066.107-.438.463-.562.463-.312 0-.426-.114-.553-.43-.771-1.93-1.914-1.938-3.359-1.938-2.221-.002-3.189 1.083-4.502 2.171-.328.271-.635.473-.881.269-.197-.169-.363-.402-.359-.577zm17.353-.7c-3.09-.24-6.535-7.363-9.934-7.305-4.475.076-11.033 7.618-18.398 7.51-3.758-.057-7.805-1.429-7.928-7.162-.102-4.776 4.555-9.741 10.471-9.6 7.861.185 11.734 7.072 15.666 7.097 3.854.027 8.385-5.999 12.277-6.094 2.074-.049 3.674 1.953 3.828 4.741.233 4.183-2.421 11.087-5.982 10.813z"/></svg>