<svg xmlns="http://www.w3.org/2000/svg" width="64" height="64"><path fill-rule="evenodd" clip-rule="evenodd" fill="#FFF" d="M6.747 16.938c-1.446 4.841-.265 10.302 3.554 14.124l1.229 1.23 6.319 6.322 6.691 6.689 6.312-6.326-6.683-6.686-6.32-6.321-1.235-1.235c-2.045-2.045-2.047-5.383.011-7.442a5.247 5.247 0 017.426-.002l.489.491 6.317-6.322-.492-.493a14.156 14.156 0 00-13.277-3.782C16.429 3.111 12.899.002 8.643 0 3.914 0 .082 3.842.082 8.572c0 4.084 2.848 7.5 6.665 8.366zm18.54 1.591l6.319-6.32 1.23-1.229a14.177 14.177 0 0114.041-3.591C47.452 3.217 51.033 0 55.357 0c4.73 0 8.562 3.838 8.562 8.572a8.567 8.567 0 01-7.432 8.5c1.375 4.805.174 10.191-3.604 13.978l-.49.496-6.313-6.328.486-.491a5.259 5.259 0 00.002-7.433 5.237 5.237 0 00-7.418.011l-1.23 1.23-6.32 6.323-6.682 6.688-6.318-6.323 6.687-6.694zM64 55.43c0 4.736-3.834 8.57-8.559 8.57a8.563 8.563 0 01-8.394-6.861 14.175 14.175 0 01-14.211-3.531l-.482-.484 6.314-6.326.482.486a5.249 5.249 0 107.416-7.426L45.33 38.62l-6.312-6.326-6.67-6.686 6.32-6.32 6.662 6.681 6.315 6.325 1.238 1.242a14.183 14.183 0 013.756 13.406A8.568 8.568 0 0164 55.43zm-26.079-9.379l-6.314 6.326-1.24 1.24c-3.645 3.652-8.79 4.893-13.458 3.734-.874 3.811-4.279 6.647-8.346 6.649C3.833 64 0 60.164 0 55.43a8.576 8.576 0 016.584-8.344c-1.193-4.697.047-9.885 3.717-13.561l.483-.482 6.318 6.32-.488.486a5.261 5.261 0 00.003 7.436 5.255 5.255 0 007.434.008l1.235-1.24 6.313-6.322 6.672-6.688 6.311 6.326-6.661 6.682z"/></svg>