<svg xmlns="http://www.w3.org/2000/svg" width="64" height="64"><path fill="#FFF" d="M33 0v16h14v10H33v16.848c0 3.671.982 6.029 1.36 7.078.378 1.039 1.481 1.869 2.509 2.492 1.363.842 2.989 1.264 4.747 1.264 3.123 0 5.384-1.045 9.384-3.13v9.993c-4 1.276-4.892 2.172-7.028 2.687-2.137.516-4.382.768-6.862.768-2.82 0-5.279-.365-7.447-1.093-2.166-.734-3.996-1.779-5.529-3.131-1.529-1.355-3.124-2.793-3.714-4.32-.592-1.527-1.42-3.739-1.42-6.632V26h-6v-8.368c2-.809 4.634-1.97 6.358-3.483 1.729-1.506 3.18-3.637 4.221-5.755C24.628 6.278 25.416 6 25.809 0H33z"/></svg>