<svg xmlns="http://www.w3.org/2000/svg" width="64" height="64"><path fill="#FFF" d="M4.55 32c0 10.864 6.312 20.255 15.471 24.704L6.926 20.828A27.329 27.329 0 004.55 32zm45.982-1.385c0-3.394-1.22-5.743-2.263-7.571-1.393-2.261-2.697-4.174-2.697-6.438 0-2.521 1.912-4.871 4.611-4.871.12 0 .234.015.354.021a27.347 27.347 0 00-18.538-7.204c-9.591 0-18.025 4.918-22.937 12.371.646.02 1.252.033 1.77.033 2.869 0 7.314-.351 7.314-.351 1.479-.086 1.656 2.089.176 2.265 0 0-1.487.173-3.143.261l9.998 29.733 6.007-18.017-4.275-11.717c-1.479-.088-2.879-.261-2.879-.261-1.481-.089-1.308-2.351.174-2.265 0 0 4.532.351 7.229.351 2.871 0 7.316-.351 7.316-.351 1.48-.086 1.655 2.089.176 2.265 0 0-1.489.173-3.141.261l9.92 29.508 2.739-9.148c1.389-3.569 2.089-6.524 2.089-8.875zm-18.05 3.783l-8.237 23.935a27.455 27.455 0 0016.87-.437 2.26 2.26 0 01-.195-.38l-8.438-23.118zM56.089 18.83c.116.875.185 1.812.185 2.823 0 2.786-.521 5.917-2.089 9.832l-8.384 24.242c8.163-4.759 13.65-13.601 13.65-23.728 0-4.773-1.221-9.258-3.362-13.169zM0 32c0 17.646 14.356 32 31.999 32C49.643 64 64 49.646 64 32 64 14.355 49.643 0 31.999 0 14.356 0 0 14.355 0 32zm1.468 0c0-16.834 13.697-30.529 30.531-30.529 16.837 0 30.534 13.695 30.534 30.529 0 16.835-13.697 30.533-30.534 30.533C15.165 62.533 1.468 48.835 1.468 32z"/></svg>